
<svg xmlns="http://www.w3.org/2000/svg" width="1024" height="1024" viewBox="0 0 1024 1024">
  <defs>
    <linearGradient id="g" x1="0" x2="1" y1="0" y2="1">
      <stop offset="0" stop-color="#ff7a18"/>
      <stop offset="1" stop-color="#1e88e5"/>
    </linearGradient>
    <filter id="s" x="-20%" y="-20%" width="140%" height="140%">
      <feDropShadow dx="0" dy="10" stdDeviation="20" flood-color="#000" flood-opacity="0.3"/>
    </filter>
  </defs>
  <rect rx="200" ry="200" x="64" y="64" width="896" height="896" fill="url(#g)" filter="url(#s)"/>
  <!-- stylized H -->
  <g transform="translate(140,180)">
    <rect x="80" y="60" width="120" height="520" rx="40" fill="#ffffff"/>
    <rect x="540" y="60" width="120" height="520" rx="40" fill="#ffffff"/>
    <rect x="200" y="260" width="360" height="120" rx="40" fill="#ffffff"/>
  </g>
  <!-- folded hands icon in negative space -->
  <g transform="translate(362,450) scale(1.1)">
    <path d="M 40 0 C 40 -40 90 -40 90 0 L 90 130 C 90 150 70 170 50 160 L 40 120 Z" fill="#ffe0b2"/>
    <path d="M 160 0 C 160 -40 110 -40 110 0 L 110 130 C 110 150 130 170 150 160 L 160 120 Z" fill="#ffe0b2"/>
    <rect x="90" y="120" width="20" height="40" fill="#1e88e5"/>
  </g>
  <text x="50%" y="920" font-family="Verdana, Arial" font-size="120" text-anchor="middle" fill="#ffffff">HARSHA</text>
</svg>
